<?xml version="1.0" encoding="utf-8"?>
<!-- Generator: Adobe Illustrator 24.1.2, SVG Export Plug-In . SVG Version: 6.00 Build 0)  -->
<svg version="1.1" id="Слой_1" xmlns="http://www.w3.org/2000/svg" xmlns:xlink="http://www.w3.org/1999/xlink" x="0px" y="0px"
	 viewBox="0 0 250 150" style="enable-background:new 0 0 250 150;" xml:space="preserve">
<style type="text/css">
	.st0{fill:url(#SVGID_1_);}
</style>
<g id="ad2a3e61-da5e-4f00-ba76-906be50976ed" transform="matrix(1.8157894676081692,0,0,1.8157894676081692,77.36789259136533,133.2947372443392)">
	
		<linearGradient id="SVGID_1_" gradientUnits="userSpaceOnUse" x1="-80.8579" y1="-29.9923" x2="-79.8299" y2="-29.9923" gradientTransform="matrix(300.7603 13.9342 -140.2469 29.8817 20086.5449 1988.0012)">
		<stop  offset="0" style="stop-color:#000000"/>
		<stop  offset="1" style="stop-color:#000000"/>
	</linearGradient>
	<path class="st0" d="M-15.1-27.1h2.7l0.7-1.9h4.4l0.7,1.9h2.8l-4.3-10.1h-2.6L-15.1-27.1z M-10.9-30.9l1.4-3.7l1.4,3.7H-10.9z
		 M-3.9-37.1l3.9,10.1h2.7l3.9-10.1H4l-2.6,7.4l-2.6-7.4H-3.9z M6.7-35.1h3v8h2.6v-8h3.1v-2.1H6.7V-35.1z M15.8-32.1
		c0,3,2.4,5.1,5.4,5.1s5.4-2.3,5.4-5.1s-2.4-5.1-5.4-5.1C18-37.2,15.8-35.1,15.8-32.1z M18.4-32.1c0-1.7,1.3-3,2.9-3
		c1.5,0,2.8,1.2,2.8,3c0,1.7-1.2,3-2.8,3C19.7-29.1,18.4-30.5,18.4-32.1z M27-37.1l3.9,10.1h2.7l3.9-10.1h-2.7l-2.5,7.4l-2.6-7.4H27
		z M37.8-32.1c0,3,2.4,5.1,5.4,5.1c3.1,0,5.4-2.3,5.4-5.1s-2.4-5.1-5.4-5.1C40.1-37.2,37.8-35.1,37.8-32.1z M40.5-32.1
		c0-1.7,1.3-3,2.9-3c1.5,0,2.8,1.2,2.8,3c0,1.7-1.2,3-2.8,3C41.8-29.1,40.5-30.5,40.5-32.1z M50-27.1h2.6v-2.5l1.3-1.5l2.7,4h3.1
		l-4-5.9l3.7-4.2h-3l-3.9,4.4v-4.4h-2.6v10.1H50z M60.2-27.1h8.9v-2.1h-5.4l5.3-6.4v-1.6h-8.6v2.1h5.2l-5.4,6.4L60.2-27.1L60.2-27.1
		z M69.4-27.1h2.7l0.7-1.9h4.4l0.7,1.9h2.7l-4.2-10.1h-2.7L69.4-27.1z M73.6-30.9l1.4-3.7l1.4,3.7H73.6z M81.6-27.1h6.9v-2.2h-4.3
		v-7.9h-2.6V-27.1z"/>
</g>
<g id="_x35_32be13d-ea37-4c8a-a479-57dd9b5482f6" transform="matrix(0.27236842014122536,0,0,0.27236842014122536,38.365789479152646,136.38157899293873)">
	<path d="M-14.3-276.8h-74.3c-4.7,0-8.9,3.9-8.9,8.6v74.6c0,4.4,4.1,8,8.2,8.5v4.6c0,3.5,2.5,6.4,6,6.4h3.2c3.5,0,6.3-2.9,6.3-6.4
		v-4.9h45.2v4.9c0,3.5,2.4,6.4,6,6.4h3.2c3.5,0,6.3-2.9,6.3-6.4v-4.6c4.1-0.5,7.2-4.1,7.2-8.5v-74.6C-6-272.9-9.5-276.8-14.3-276.8z
		 M-87.3-270.3c0-1.6,1.5-3.4,3.1-3.4h65.4c1.6,0,3.5,1.7,3.5,3.4v5.4c0,1.6-1.9,2.6-3.4,2.6h-65.5c-1.6,0-3.1-0.9-3.1-2.6V-270.3z
		 M-77.3-197.5c0,0.7-0.6,1.2-1.2,1.2H-92c-0.7,0-1.2-0.6-1.2-1.2v-5.2c0-0.7,0.6-1.2,1.2-1.2h13.5c0.7,0,1.2,0.6,1.2,1.2V-197.5z
		 M-53.3-226.9c0,2.4-2,4.6-4.3,4.6h-31.3c-2.4,0-4.5-2.3-4.5-4.6v-27.2c0-2.4,2.2-4.1,4.5-4.1h31.3c2.4,0,4.3,1.7,4.3,4.1V-226.9z
		 M-9.5-197.5c0,0.7-0.6,1.2-1.2,1.2h-13.6c-0.7,0-1.2-0.6-1.2-1.2v-5.2c0-0.7,0.6-1.2,1.2-1.2h13.5c0.7,0,1.2,0.6,1.2,1.2
		C-9.5-202.7-9.5-197.5-9.5-197.5z M-9.1-226.9c0,2.4-2.4,4.6-4.8,4.6h-31.3c-2.4,0-4-2.3-4-4.6v-27.2c0-2.4,1.6-4.1,4-4.1H-14
		c2.4,0,4.8,1.7,4.8,4.1V-226.9z"/>
	<path d="M-23.6-202.1h6.6v4h-6.6V-202.1z M-85.6-202.1h6.5v4h-6.5C-85.6-198.1-85.6-202.1-85.6-202.1z"/>
</g>
<g>
</g>
<g>
</g>
<g>
</g>
<g>
</g>
<g>
</g>
<g>
</g>
<g>
</g>
<g>
</g>
<g>
</g>
<g>
</g>
<g>
</g>
<g>
</g>
<g>
</g>
<g>
</g>
<g>
</g>
</svg>
