<?xml version="1.0" encoding="utf-8"?>
<!-- Generator: Adobe Illustrator 24.1.2, SVG Export Plug-In . SVG Version: 6.00 Build 0)  -->
<svg version="1.1" id="Слой_1" xmlns="http://www.w3.org/2000/svg" xmlns:xlink="http://www.w3.org/1999/xlink" x="0px" y="0px"
	 viewBox="0 0 250 31" style="enable-background:new 0 0 250 31;" xml:space="preserve">
<style type="text/css">
	.st0{fill:#FFFFFF;}
</style>
<g id="acee177c-0f52-40b9-9dc7-d5a4f71503fb" transform="matrix(2.201161744094331,0,0,2.201161744094331,80.95750707308146,137.365331961505)">
	<path class="st0" d="M-6.7-51.5H-5l0.3-1.5h3l0.3,1.5h1.7L-1.5-60h-3.3L-6.7-51.5z M-3.5-58.6h0.6l0.9,4h-2.3L-3.5-58.6z M6.2-60
		l-1.5,7H4.1l-1.5-7H0.8l2,8.5H6L8-60H6.2z M8.3-58.5h2.3v7h1.7v-7h2.3V-60H8.3V-58.5z M18.8-52.9c-1.4,0-1.8-0.9-1.8-2.9
		c0-2,0.4-3,1.8-3c1.4,0,1.8,1,1.8,3C20.5-53.8,20.2-52.9,18.8-52.9z M18.8-51.4c2.7,0,3.5-1.5,3.5-4.4c0-2.9-0.9-4.5-3.5-4.5
		c-2.7,0-3.5,1.6-3.5,4.5C15.2-52.8,16.1-51.4,18.8-51.4z M28.4-60l-1.5,7h-0.6l-1.5-7h-1.8l2,8.5h3.2l2-8.5H28.4z M34.4-52.9
		c-1.4,0-1.8-0.9-1.8-2.9c0-2,0.4-3,1.8-3c1.4,0,1.8,1,1.8,3C36.1-53.8,35.8-52.9,34.4-52.9z M34.4-51.4c2.7,0,3.5-1.5,3.5-4.4
		c0-2.9-0.9-4.5-3.5-4.5c-2.7,0-3.5,1.6-3.5,4.5C30.8-52.8,31.7-51.4,34.4-51.4z M43.7-51.5h2l-1.9-4.3l1.9-4.3h-2l-1.4,3.6
		l-1.1,0.1V-60h-1.7v8.5h1.7v-3.3l1.1-0.1L43.7-51.5z M46.4-58.5H50v0.2L46.4-53v1.5h5.6V-53h-3.6v-0.2l3.6-5.3V-60h-5.6V-58.5z
		 M52.8-51.5h1.7l0.3-1.5h3l0.3,1.5h1.7L58-60h-3.3L52.8-51.5z M56-58.6h0.6l0.9,4h-2.3L56-58.6z M65.9-51.5V-53h-3.1v-7H61v8.5
		H65.9z"/>
</g>
<g id="_x39_f39b35e-19cd-4717-8c87-32324b468e40" transform="matrix(0.32555181061591787,0,0,0.32555181061591787,40,133.7224094692041)">
	<path class="st0" d="M44.6-328.8v-70c0-2.3-0.4-4.1-1.1-5.4c-0.8-1.3-1.5-2.3-2.2-3.1c-0.7-0.7-1.8-1.4-3.1-2.2
		c-1.3-0.7-3.1-1.1-5.4-1.1h-54.7c-2.3,0-4.1,0.4-5.4,1.1c-1.3,0.8-2.3,1.5-3.1,2.2c-0.7,0.7-1.4,1.8-2.2,3.1
		c-0.7,1.3-1.1,3.1-1.1,5.4v70l4.5,2.3l2,5.4h11.9l2-5.6h37.6l2,5.6h11.9l2-5.4L44.6-328.8 M-17-405h44.8v5.6H-17V-405 M-28.2-393.8
		H39v33.6h-67.2V-393.8 M-28.2-349.1h16.8v5.6h-16.8V-349.1 M22.2-349.1H39v5.6H22.2V-349.1 M-5.8-337.9h22.4v5.6H-5.8V-337.9"/>
</g>
<g>
</g>
<g>
</g>
<g>
</g>
<g>
</g>
<g>
</g>
<g>
</g>
<g>
</g>
<g>
</g>
<g>
</g>
<g>
</g>
<g>
</g>
<g>
</g>
<g>
</g>
<g>
</g>
<g>
</g>
</svg>
